<svg xmlns="http://www.w3.org/2000/svg" xmlns:xlink="http://www.w3.org/1999/xlink" width="500" zoomAndPan="magnify" viewBox="0 0 375 374.999991" height="500" preserveAspectRatio="xMidYMid meet" version="1.2"><defs><clipPath id="d89814b99f"><path d="M 0 0 L 112.5 0 L 112.5 236 L 0 236 Z M 0 0 "/></clipPath><clipPath id="9c438b7ada"><path d="M 0 259.453125 L 112.5 259.453125 L 112.5 375 L 0 375 Z M 0 259.453125 "/></clipPath><clipPath id="a5e46c76d8"><path d="M 56.25 259.453125 C 87.316406 259.453125 112.5 284.636719 112.5 315.703125 L 112.5 391.5625 C 112.5 422.628906 87.316406 447.8125 56.25 447.8125 C 25.183594 447.8125 0 422.628906 0 391.5625 L 0 315.703125 C 0 284.636719 25.183594 259.453125 56.25 259.453125 Z M 56.25 259.453125 "/></clipPath><clipPath id="15e7f0594d"><path d="M 262.5 0 L 375 0 L 375 130 L 262.5 130 Z M 262.5 0 "/></clipPath><clipPath id="c5ed853714"><path d="M 318.75 -63.546875 C 333.667969 -63.546875 347.976562 -57.621094 358.523438 -47.070312 C 369.074219 -36.523438 375 -22.214844 375 -7.296875 L 375 73.726562 C 375 104.792969 349.816406 129.976562 318.75 129.976562 C 287.683594 129.976562 262.5 104.792969 262.5 73.726562 L 262.5 -7.296875 C 262.5 -38.363281 287.683594 -63.546875 318.75 -63.546875 Z M 318.75 -63.546875 "/></clipPath><clipPath id="79abe8c2f1"><path d="M 0 131.179688 L 119.609375 131.179688 L 119.609375 236.09375 L 0 236.09375 Z M 0 131.179688 "/></clipPath></defs><g id="74c9d3295c"><g clip-rule="nonzero" clip-path="url(#d89814b99f)"><path style=" stroke:none;fill-rule:nonzero;fill:#ffffff;fill-opacity:1;" d="M 0 0 L 112.5 0 L 112.5 235.984375 L 0 235.984375 Z M 0 0 "/></g><g clip-rule="nonzero" clip-path="url(#9c438b7ada)"><g clip-rule="nonzero" clip-path="url(#a5e46c76d8)"><path style=" stroke:none;fill-rule:nonzero;fill:#ffffff;fill-opacity:1;" d="M 0 259.453125 L 112.5 259.453125 L 112.5 447.976562 L 0 447.976562 Z M 0 259.453125 "/></g></g><path style="fill:none;stroke-width:140;stroke-linecap:butt;stroke-linejoin:miter;stroke:#ffffff;stroke-opacity:1;stroke-miterlimit:4;" d="M 47.398426 168.133793 C 189.594783 37.291075 317.420327 37.287971 430.87858 168.128318 " transform="matrix(0.552712,0.50696,-0.50696,0.552712,169.58636,66.568575)"/><g clip-rule="nonzero" clip-path="url(#15e7f0594d)"><g clip-rule="nonzero" clip-path="url(#c5ed853714)"><path style=" stroke:none;fill-rule:nonzero;fill:#ffffff;fill-opacity:1;" d="M 262.5 -63.546875 L 375 -63.546875 L 375 129.8125 L 262.5 129.8125 Z M 262.5 -63.546875 "/></g></g><g clip-rule="nonzero" clip-path="url(#79abe8c2f1)"><path style=" stroke:none;fill-rule:nonzero;fill:#ffffff;fill-opacity:1;" d="M 119.609375 131.179688 L 119.609375 236.09375 L -0.0585938 236.09375 L -0.0585938 131.179688 Z M 119.609375 131.179688 "/></g></g></svg>